<svg width="24" height="24" viewBox="0 0 24 24" fill="none" xmlns="http://www.w3.org/2000/svg">
<path d="M5.75 15H8C8.21667 15 8.396 14.929 8.538 14.787C8.68 14.645 8.75067 14.466 8.75 14.25C8.74933 14.034 8.67833 13.855 8.537 13.713C8.39567 13.571 8.21667 13.5 8 13.5H6.25V10.5H8C8.21667 10.5 8.396 10.429 8.538 10.287C8.68 10.145 8.75067 9.966 8.75 9.75C8.74933 9.534 8.67833 9.355 8.537 9.213C8.39567 9.071 8.21667 9 8 9H5.75C5.46667 9 5.22933 9.096 5.038 9.288C4.84667 9.48 4.75067 9.71733 4.75 10V14C4.75 14.2833 4.846 14.521 5.038 14.713C5.23 14.905 5.46733 15.0007 5.75 15ZM10.4 15H12.65C12.9333 15 13.171 14.904 13.363 14.712C13.555 14.52 13.6507 14.2827 13.65 14V12.5C13.65 12.2167 13.554 11.954 13.362 11.712C13.17 11.47 12.9327 11.3493 12.65 11.35H11.15V10.5H12.9C13.1167 10.5 13.296 10.4293 13.438 10.288C13.58 10.1467 13.6507 9.96733 13.65 9.75C13.6493 9.53267 13.5783 9.35367 13.437 9.213C13.2957 9.07233 13.1167 9.00133 12.9 9H10.65C10.3667 9 10.1293 9.096 9.938 9.288C9.74667 9.48 9.65067 9.71733 9.65 10V11.5C9.65 11.7833 9.746 12.0377 9.938 12.263C10.13 12.4883 10.3673 12.6007 10.65 12.6H12.15V13.5H10.4C10.1833 13.5 10.0043 13.571 9.863 13.713C9.72167 13.855 9.65067 14.034 9.65 14.25C9.64933 14.466 9.72033 14.6453 9.863 14.788C10.0057 14.9307 10.1847 15.0013 10.4 15ZM17 12.45L16.15 9.525C16.1 9.375 16.0127 9.25 15.888 9.15C15.7633 9.05 15.6173 9 15.45 9C15.2167 9 15.0293 9.09567 14.888 9.287C14.7467 9.47833 14.709 9.691 14.775 9.925L16.1 14.475C16.15 14.625 16.2377 14.75 16.363 14.85C16.4883 14.95 16.634 15 16.8 15H17.2C17.3667 15 17.5127 14.95 17.638 14.85C17.7633 14.75 17.8507 14.625 17.9 14.475L19.225 9.925C19.2917 9.69167 19.254 9.479 19.112 9.287C18.97 9.095 18.7827 8.99933 18.55 9C18.3833 9 18.2377 9.05 18.113 9.15C17.9883 9.25 17.9007 9.375 17.85 9.525L17 12.45ZM4 20C3.45 20 2.97933 19.8043 2.588 19.413C2.19667 19.0217 2.00067 18.5507 2 18V6C2 5.45 2.196 4.97933 2.588 4.588C2.98 4.19667 3.45067 4.00067 4 4H20C20.55 4 21.021 4.196 21.413 4.588C21.805 4.98 22.0007 5.45067 22 6V18C22 18.55 21.8043 19.021 21.413 19.413C21.0217 19.805 20.5507 20.0007 20 20H4ZM4 18H20V6H4V18Z" fill="black"/>
</svg>
